<svg width="48" height="48" viewBox="0 0 24 24" fill="none" xmlns="http://www.w3.org/2000/svg">
<path d="M12 2C6.48 2 2 6.48 2 12C2 17.52 6.48 22 12 22C17.52 22 22 17.52 22 12C22 6.48 17.52 2 12 2ZM12 20C7.59 20 4 16.41 4 12C4 7.59 7.59 4 12 4C16.41 4 20 7.59 20 12C20 16.41 16.41 20 12 20Z" fill="hsl(210, 40%, 50%)"/>
<path d="M12 6C9.24 6 7 8.24 7 11C7 12.31 7.84 13.75 9 14.74V17C9 17.55 9.45 18 10 18H14C14.55 18 15 17.55 15 17V14.74C16.16 13.75 17 12.31 17 11C17 8.24 14.76 6 12 6ZM12 13C10.9 13 10 12.1 10 11C10 9.9 10.9 9 12 9C13.1 9 14 9.9 14 11C14 12.1 13.1 13 12 13Z" fill="hsl(210, 40%, 50%)"/>
</svg>
